<svg width="27" height="28" viewBox="0 0 27 28" fill="none" xmlns="http://www.w3.org/2000/svg">
<path d="M20.7279 3.67448H19.6953V2.64193C19.6953 2.36808 19.5865 2.10544 19.3929 1.9118C19.1992 1.71816 18.9366 1.60938 18.6628 1.60938C18.3889 1.60938 18.1263 1.71816 17.9326 1.9118C17.739 2.10544 17.6302 2.36808 17.6302 2.64193V3.67448H9.36979V2.64193C9.36979 2.36808 9.26101 2.10544 9.06736 1.9118C8.87372 1.71816 8.61109 1.60938 8.33724 1.60938C8.06339 1.60938 7.80076 1.71816 7.60712 1.9118C7.41347 2.10544 7.30469 2.36808 7.30469 2.64193V3.67448H6.27214C4.90339 3.67612 3.59117 4.22058 2.62332 5.18843C1.65547 6.15628 1.11101 7.46849 1.10938 8.83724L1.10938 21.2279C1.11101 22.5966 1.65547 23.9088 2.62332 24.8767C3.59117 25.8445 4.90339 26.389 6.27214 26.3906H20.7279C22.0966 26.389 23.4088 25.8445 24.3767 24.8767C25.3445 23.9088 25.889 22.5966 25.8906 21.2279V8.83724C25.889 7.46849 25.3445 6.15628 24.3767 5.18843C23.4088 4.22058 22.0966 3.67612 20.7279 3.67448ZM3.17448 8.83724C3.17448 8.01569 3.50084 7.22779 4.08176 6.64687C4.66269 6.06594 5.45059 5.73958 6.27214 5.73958H20.7279C21.5494 5.73958 22.3373 6.06594 22.9182 6.64687C23.4992 7.22779 23.8255 8.01569 23.8255 8.83724V9.86979H3.17448V8.83724ZM20.7279 24.3255H6.27214C5.45059 24.3255 4.66269 23.9992 4.08176 23.4182C3.50084 22.8373 3.17448 22.0494 3.17448 21.2279V11.9349H23.8255V21.2279C23.8255 22.0494 23.4992 22.8373 22.9182 23.4182C22.3373 23.9992 21.5494 24.3255 20.7279 24.3255Z" fill="#FCF9F6"/>
<path d="M13.5 18.6445C14.3554 18.6445 15.0488 17.9511 15.0488 17.0957C15.0488 16.2403 14.3554 15.5469 13.5 15.5469C12.6446 15.5469 11.9512 16.2403 11.9512 17.0957C11.9512 17.9511 12.6446 18.6445 13.5 18.6445Z" fill="#FCF9F6"/>
<path d="M8.33691 18.6445C9.19231 18.6445 9.88574 17.9511 9.88574 17.0957C9.88574 16.2403 9.19231 15.5469 8.33691 15.5469C7.48152 15.5469 6.78809 16.2403 6.78809 17.0957C6.78809 17.9511 7.48152 18.6445 8.33691 18.6445Z" fill="#FCF9F6"/>
<path d="M18.6631 18.6445C19.5185 18.6445 20.2119 17.9511 20.2119 17.0957C20.2119 16.2403 19.5185 15.5469 18.6631 15.5469C17.8077 15.5469 17.1143 16.2403 17.1143 17.0957C17.1143 17.9511 17.8077 18.6445 18.6631 18.6445Z" fill="#FCF9F6"/>
</svg>
