<svg width="27" height="28" viewBox="0 0 27 28" fill="none" xmlns="http://www.w3.org/2000/svg">
<g clip-path="url(#clip0_41260_5962)">
<path d="M13.5 18.4479C12.6203 18.4479 11.7603 18.1871 11.0289 17.6983C10.2974 17.2096 9.72731 16.5149 9.39066 15.7021C9.05401 14.8894 8.96592 13.9951 9.13755 13.1323C9.30917 12.2694 9.73279 11.4769 10.3548 10.8548C10.9769 10.2328 11.7694 9.80917 12.6323 9.63755C13.4951 9.46593 14.3894 9.55401 15.2021 9.89066C16.0149 10.2273 16.7096 10.7974 17.1983 11.5289C17.687 12.2603 17.9479 13.1203 17.9479 14C17.9479 15.1797 17.4793 16.311 16.6452 17.1452C15.811 17.9793 14.6797 18.4479 13.5 18.4479ZM13.5 11.776C13.0601 11.776 12.6302 11.9065 12.2644 12.1508C11.8987 12.3952 11.6137 12.7426 11.4453 13.1489C11.277 13.5553 11.233 14.0025 11.3188 14.4339C11.4046 14.8653 11.6164 15.2616 11.9274 15.5726C12.2385 15.8836 12.6347 16.0954 13.0661 16.1812C13.4975 16.267 13.9447 16.223 14.3511 16.0547C14.7574 15.8863 15.1048 15.6013 15.3492 15.2356C15.5935 14.8698 15.724 14.4399 15.724 14C15.724 13.4102 15.4896 12.8445 15.0726 12.4274C14.6555 12.0104 14.0898 11.776 13.5 11.776ZM20.1719 26.2318C20.1719 24.4623 19.4689 22.7653 18.2177 21.514C16.9665 20.2628 15.2695 19.5599 13.5 19.5599C11.7305 19.5599 10.0335 20.2628 8.78227 21.514C7.53105 22.7653 6.82812 24.4623 6.82812 26.2318C6.82812 26.5267 6.94528 26.8095 7.15382 27.0181C7.36235 27.2266 7.64519 27.3438 7.9401 27.3438C8.23502 27.3438 8.51785 27.2266 8.72639 27.0181C8.93493 26.8095 9.05208 26.5267 9.05208 26.2318C9.05208 25.0521 9.5207 23.9208 10.3548 23.0866C11.189 22.2525 12.3203 21.7839 13.5 21.7839C14.6797 21.7839 15.811 22.2525 16.6452 23.0866C17.4793 23.9208 17.9479 25.0521 17.9479 26.2318C17.9479 26.5267 18.0651 26.8095 18.2736 27.0181C18.4821 27.2266 18.765 27.3438 19.0599 27.3438C19.3548 27.3438 19.6376 27.2266 19.8462 27.0181C20.0547 26.8095 20.1719 26.5267 20.1719 26.2318ZM20.1719 9.55208C19.2922 9.55208 18.4322 9.29122 17.7007 8.80248C16.9693 8.31373 16.3992 7.61906 16.0625 6.80631C15.7259 5.99356 15.6378 5.09923 15.8094 4.23642C15.981 3.37361 16.4047 2.58107 17.0267 1.95902C17.6488 1.33696 18.4413 0.913341 19.3041 0.741717C20.1669 0.570094 21.0613 0.658177 21.874 0.994829C22.6868 1.33148 23.3814 1.90158 23.8702 2.63304C24.3589 3.36449 24.6198 4.22445 24.6198 5.10417C24.6198 6.28383 24.1512 7.41517 23.317 8.24932C22.4829 9.08347 21.3515 9.55208 20.1719 9.55208ZM20.1719 2.88021C19.732 2.88021 19.302 3.01064 18.9363 3.25501C18.5706 3.49939 18.2855 3.84672 18.1172 4.2531C17.9489 4.65947 17.9048 5.10664 17.9906 5.53804C18.0765 5.96945 18.2883 6.36572 18.5993 6.67674C18.9103 6.98777 19.3066 7.19958 19.738 7.28539C20.1694 7.37121 20.6166 7.32716 21.0229 7.15884C21.4293 6.99051 21.7767 6.70546 22.021 6.33973C22.2654 5.97401 22.3958 5.54403 22.3958 5.10417C22.3958 4.51434 22.1615 3.94867 21.7444 3.53159C21.3274 3.11452 20.7617 2.88021 20.1719 2.88021ZM26.8438 17.3359C26.842 15.567 26.1385 13.871 24.8877 12.6202C23.6368 11.3693 21.9408 10.6658 20.1719 10.6641C19.877 10.6641 19.5941 10.7812 19.3856 10.9898C19.177 11.1983 19.0599 11.4811 19.0599 11.776C19.0599 12.071 19.177 12.3538 19.3856 12.5623C19.5941 12.7709 19.877 12.888 20.1719 12.888C21.3515 12.888 22.4829 13.3566 23.317 14.1908C24.1512 15.0249 24.6198 16.1563 24.6198 17.3359C24.6198 17.6309 24.7369 17.9137 24.9455 18.1222C25.154 18.3308 25.4369 18.4479 25.7318 18.4479C26.0267 18.4479 26.3095 18.3308 26.5181 18.1222C26.7266 17.9137 26.8438 17.6309 26.8438 17.3359ZM6.82812 9.55208C5.94841 9.55208 5.08845 9.29122 4.35699 8.80248C3.62554 8.31373 3.05544 7.61906 2.71879 6.80631C2.38213 5.99356 2.29405 5.09923 2.46567 4.23642C2.6373 3.37361 3.06092 2.58107 3.68297 1.95902C4.30503 1.33696 5.09757 0.913341 5.96038 0.741717C6.82319 0.570094 7.71752 0.658177 8.53027 0.994829C9.34302 1.33148 10.0377 1.90158 10.5264 2.63304C11.0152 3.36449 11.276 4.22445 11.276 5.10417C11.276 6.28383 10.8074 7.41517 9.97328 8.24932C9.13913 9.08347 8.00779 9.55208 6.82812 9.55208ZM6.82812 2.88021C6.38827 2.88021 5.95829 3.01064 5.59256 3.25501C5.22683 3.49939 4.94178 3.84672 4.77346 4.2531C4.60513 4.65947 4.56109 5.10664 4.6469 5.53804C4.73271 5.96945 4.94452 6.36572 5.25555 6.67674C5.56658 6.98777 5.96285 7.19958 6.39425 7.28539C6.82566 7.37121 7.27282 7.32716 7.6792 7.15884C8.08557 6.99051 8.43291 6.70546 8.67728 6.33973C8.92165 5.97401 9.05208 5.54403 9.05208 5.10417C9.05208 4.51434 8.81777 3.94867 8.4007 3.53159C7.98363 3.11452 7.41796 2.88021 6.82812 2.88021ZM2.38021 17.3359C2.38021 16.1563 2.84883 15.0249 3.68297 14.1908C4.51712 13.3566 5.64846 12.888 6.82812 12.888C7.12304 12.888 7.40588 12.7709 7.61441 12.5623C7.82295 12.3538 7.9401 12.071 7.9401 11.776C7.9401 11.4811 7.82295 11.1983 7.61441 10.9898C7.40588 10.7812 7.12304 10.6641 6.82812 10.6641C5.05918 10.6658 3.36318 11.3693 2.11235 12.6202C0.861511 13.871 0.158016 15.567 0.15625 17.3359C0.15625 17.6309 0.273405 17.9137 0.481941 18.1222C0.690478 18.3308 0.973314 18.4479 1.26823 18.4479C1.56314 18.4479 1.84598 18.3308 2.05452 18.1222C2.26305 17.9137 2.38021 17.6309 2.38021 17.3359Z" fill="#FCF9F6"/>
</g>
<defs>
<clipPath id="clip0_41260_5962">
<rect width="26.6875" height="26.6875" fill="white" transform="translate(0.15625 0.65625)"/>
</clipPath>
</defs>
</svg>
