<svg width="23" height="24" viewBox="0 0 23 24" fill="none" xmlns="http://www.w3.org/2000/svg">
<g clip-path="url(#clip0_41260_5950)">
<path d="M1.71117 5.19826H4.14588C4.33688 5.92025 4.75383 6.55761 5.33239 7.01202C5.91094 7.46642 6.61897 7.71261 7.34723 7.71261C8.07549 7.71261 8.78352 7.46642 9.36207 7.01202C9.94063 6.55761 10.3576 5.92025 10.5486 5.19826H21.2885C21.5246 5.19826 21.7509 5.10194 21.9178 4.93049C22.0847 4.75904 22.1784 4.52651 22.1784 4.28404C22.1784 4.04157 22.0847 3.80904 21.9178 3.63759C21.7509 3.46614 21.5246 3.36982 21.2885 3.36982H10.5486C10.3576 2.64783 9.94063 2.01047 9.36207 1.55606C8.78352 1.10166 8.07549 0.855469 7.34723 0.855469C6.61897 0.855469 5.91094 1.10166 5.33239 1.55606C4.75383 2.01047 4.33688 2.64783 4.14588 3.36982H1.71117C1.47516 3.36982 1.24881 3.46614 1.08193 3.63759C0.915044 3.80904 0.821289 4.04157 0.821289 4.28404C0.821289 4.52651 0.915044 4.75904 1.08193 4.93049C1.24881 5.10194 1.47516 5.19826 1.71117 5.19826ZM7.34679 2.68415C7.65479 2.68415 7.95588 2.77798 8.21197 2.95378C8.46807 3.12958 8.66767 3.37945 8.78554 3.67179C8.9034 3.96413 8.93424 4.28582 8.87416 4.59616C8.81407 4.90651 8.66575 5.19158 8.44796 5.41533C8.23017 5.63908 7.95268 5.79146 7.6506 5.85319C7.34851 5.91492 7.03539 5.88324 6.75084 5.76215C6.46628 5.64105 6.22306 5.43599 6.05195 5.17289C5.88083 4.90979 5.78949 4.60047 5.78949 4.28404C5.78997 3.85987 5.95419 3.45321 6.24613 3.15328C6.53808 2.85335 6.93391 2.68463 7.34679 2.68415Z" fill="#FCF9F6"/>
<path d="M21.2885 11.0849H18.8538C18.6632 10.3629 18.2464 9.7255 17.6679 9.27103C17.0894 8.81656 16.3813 8.57031 15.6529 8.57031C14.9246 8.57031 14.2165 8.81656 13.638 9.27103C13.0595 9.7255 12.6427 10.3629 12.452 11.0849H1.71117C1.47516 11.0849 1.24881 11.1812 1.08193 11.3526C0.915044 11.524 0.821289 11.7565 0.821289 11.9989C0.821289 12.2413 0.915044 12.4738 1.08193 12.6452C1.24881 12.8166 1.47516 12.9129 1.71117 12.9129H12.452C12.6427 13.6348 13.0595 14.2723 13.638 14.7267C14.2165 15.1812 14.9246 15.4275 15.6529 15.4275C16.3813 15.4275 17.0894 15.1812 17.6679 14.7267C18.2464 14.2723 18.6632 13.6348 18.8538 12.9129H21.2885C21.5246 12.9129 21.7509 12.8166 21.9178 12.6452C22.0847 12.4738 22.1784 12.2413 22.1784 11.9989C22.1784 11.7565 22.0847 11.524 21.9178 11.3526C21.7509 11.1812 21.5246 11.0849 21.2885 11.0849ZM15.6529 13.5984C15.3449 13.5984 15.0438 13.5045 14.7877 13.3288C14.5317 13.153 14.3321 12.9032 14.2142 12.611C14.0963 12.3187 14.0655 11.9971 14.1256 11.6868C14.1857 11.3766 14.334 11.0916 14.5518 10.8679C14.7696 10.6442 15.047 10.4919 15.3491 10.4301C15.6512 10.3684 15.9643 10.4001 16.2489 10.5212C16.5334 10.6422 16.7767 10.8472 16.9478 11.1103C17.1189 11.3733 17.2102 11.6825 17.2102 11.9989C17.2098 12.4229 17.0455 12.8295 16.7536 13.1293C16.4616 13.4292 16.0658 13.5979 15.6529 13.5984Z" fill="#FCF9F6"/>
<path d="M21.2885 18.7995H10.5486C10.3576 18.0775 9.94063 17.4402 9.36207 16.9858C8.78352 16.5313 8.07549 16.2852 7.34723 16.2852C6.61897 16.2852 5.91094 16.5313 5.33239 16.9858C4.75383 17.4402 4.33688 18.0775 4.14588 18.7995H1.71117C1.47516 18.7995 1.24881 18.8958 1.08193 19.0673C0.915044 19.2387 0.821289 19.4713 0.821289 19.7137C0.821289 19.9562 0.915044 20.1887 1.08193 20.3602C1.24881 20.5316 1.47516 20.6279 1.71117 20.6279H4.14588C4.33688 21.3499 4.75383 21.9873 5.33239 22.4417C5.91094 22.8961 6.61897 23.1423 7.34723 23.1423C8.07549 23.1423 8.78352 22.8961 9.36207 22.4417C9.94063 21.9873 10.3576 21.3499 10.5486 20.6279H21.2885C21.5246 20.6279 21.7509 20.5316 21.9178 20.3602C22.0847 20.1887 22.1784 19.9562 22.1784 19.7137C22.1784 19.4713 22.0847 19.2387 21.9178 19.0673C21.7509 18.8958 21.5246 18.7995 21.2885 18.7995ZM7.34679 21.3136C7.03878 21.3136 6.7377 21.2198 6.4816 21.044C6.22551 20.8682 6.0259 20.6183 5.90804 20.326C5.79017 20.0336 5.75933 19.712 5.81942 19.4016C5.87951 19.0913 6.02782 18.8062 6.24561 18.5824C6.46341 18.3587 6.74089 18.2063 7.04297 18.1446C7.34506 18.0828 7.65818 18.1145 7.94274 18.2356C8.22729 18.3567 8.47051 18.5618 8.64163 18.8249C8.81274 19.088 8.90408 19.3973 8.90408 19.7137C8.90337 20.1378 8.73907 20.5443 8.44718 20.8442C8.15528 21.1441 7.75959 21.3129 7.34679 21.3136Z" fill="#FCF9F6"/>
</g>
<defs>
<clipPath id="clip0_41260_5950">
<rect width="23" height="24" fill="white"/>
</clipPath>
</defs>
</svg>
