<svg width="18" height="18" viewBox="0 0 18 18" fill="none" xmlns="http://www.w3.org/2000/svg">
<path d="M15.4167 0.75C15.9029 0.75 16.3692 0.943154 16.713 1.28697C17.0568 1.63079 17.25 2.0971 17.25 2.58333V15.4167C17.25 15.9029 17.0568 16.3692 16.713 16.713C16.3692 17.0568 15.9029 17.25 15.4167 17.25H2.58333C2.0971 17.25 1.63079 17.0568 1.28697 16.713C0.943154 16.3692 0.75 15.9029 0.75 15.4167V2.58333C0.75 2.0971 0.943154 1.63079 1.28697 1.28697C1.63079 0.943154 2.0971 0.75 2.58333 0.75H15.4167ZM14.9583 14.9583V10.1C14.9583 9.30744 14.6435 8.54735 14.0831 7.98693C13.5226 7.42651 12.7626 7.11167 11.97 7.11167C11.1908 7.11167 10.2833 7.58833 9.84333 8.30333V7.28583H7.28583V14.9583H9.84333V10.4392C9.84333 9.73333 10.4117 9.15583 11.1175 9.15583C11.4579 9.15583 11.7843 9.29104 12.025 9.53171C12.2656 9.77238 12.4008 10.0988 12.4008 10.4392V14.9583H14.9583ZM4.30667 5.84667C4.7151 5.84667 5.10681 5.68442 5.39561 5.39561C5.68442 5.10681 5.84667 4.7151 5.84667 4.30667C5.84667 3.45417 5.15917 2.7575 4.30667 2.7575C3.8958 2.7575 3.50177 2.92072 3.21124 3.21124C2.92072 3.50177 2.7575 3.8958 2.7575 4.30667C2.7575 5.15917 3.45417 5.84667 4.30667 5.84667ZM5.58083 14.9583V7.28583H3.04167V14.9583H5.58083Z" fill="#FCF9F6"/>
</svg>
