<svg width="826" height="949" viewBox="0 0 826 949" fill="none" xmlns="http://www.w3.org/2000/svg">
<g opacity="0.05">
<path d="M589.658 22.0874C559.48 5.86374 520.552 26.7626 503.38 56.4118C486.208 86.0602 484.087 121.663 478.467 155.461C472.847 189.259 461.348 225.278 432.827 244.265C396.366 268.54 343.926 257.081 308.52 282.87C280.924 302.971 272.546 339.824 274.701 372.226C275.92 390.547 282.977 408.46 285.704 426.578C298.074 508.742 374.913 543.775 364.468 605.447C353.157 672.224 309.978 694.084 284.532 697.641C251.939 702.199 172.747 700.156 148.144 620.317C138.149 587.883 126.741 555.263 107.984 526.978C79.9028 484.63 20.6823 461.863 -24.8509 484.415C-56.0578 499.871 -78.347 533.559 -112.754 538.934C-135.88 542.547 -159.643 531.605 -175.685 514.561C-191.728 497.517 -200.945 475.094 -206.669 452.399" stroke="url(#paint0_linear_41260_10474)" stroke-miterlimit="10"/>
<path d="M590.69 24.1184C559.131 8.75675 518.88 28.9452 500.662 59.2718C482.88 88.8726 480.477 124.966 475.533 159.031C470.648 192.693 460.556 228.256 433.741 247.81C399.452 272.772 348.891 263.914 313.791 289.774C285.924 310.409 275.821 345.957 276.111 378.388C276.278 397.019 282.206 415.77 284.782 434.636C295.707 514.615 369.652 549.536 359.527 609.904C348.612 674.827 307.12 697.129 281.833 701.274C249.788 706.524 173.578 704.323 148.22 628.064C137.766 596.625 125.606 564.75 106.894 536.821C79.4171 495.634 22.4679 473.259 -22.0263 493.955C-52.8104 508.273 -75.5091 540.282 -109.526 545.728C-132.8 549.495 -156.528 539.5 -173.179 523.586C-189.985 507.524 -200.574 486.013 -207.496 463.652" stroke="url(#paint1_linear_41260_10474)" stroke-miterlimit="10"/>
<path d="M591.723 26.1492C558.782 11.6487 517.219 31.1306 497.944 62.1322C479.568 91.6907 476.859 128.266 472.599 162.601C468.44 196.124 459.765 231.234 434.656 251.354C402.539 277.005 353.797 270.668 319.064 296.678C290.876 317.784 279.062 352.116 277.523 384.55C276.623 403.506 281.442 423.075 283.863 442.694C293.455 520.459 364.393 555.297 354.589 614.36C344.07 677.428 304.269 700.167 279.136 704.903C247.641 710.839 174.365 708.476 148.299 635.808C137.373 605.349 124.474 574.234 105.806 546.66C78.9343 506.635 24.2369 484.643 -19.1985 503.49C-49.5729 516.67 -72.668 547 -106.295 552.518C-129.717 556.442 -153.43 547.392 -170.67 532.607C-188.256 517.524 -200.198 496.928 -208.318 474.903" stroke="url(#paint2_linear_41260_10474)" stroke-miterlimit="10"/>
<path d="M592.756 28.1802C558.434 14.5417 515.568 33.3195 495.227 64.9936C476.267 94.5158 473.236 131.562 469.666 166.173C466.223 199.553 458.976 234.215 435.571 254.901C405.625 281.239 358.74 277.473 324.335 303.583C295.856 325.197 282.267 358.294 278.934 390.713C276.95 410.009 280.685 430.376 282.941 450.754C291.305 526.282 359.132 561.061 349.65 618.819C339.525 680.033 301.418 703.201 276.438 708.538C245.495 715.146 175.097 712.621 148.375 643.557C136.965 614.065 123.262 583.777 104.716 556.505C78.3382 517.717 25.9851 496.021 -16.3715 513.031C-46.3502 525.071 -69.8402 553.645 -103.065 559.314C-126.642 563.336 -150.354 555.293 -168.162 541.633C-186.549 527.529 -199.824 507.848 -209.142 486.158" stroke="url(#paint3_linear_41260_10474)" stroke-miterlimit="10"/>
<path d="M593.787 30.2113C558.085 17.4343 513.925 35.5133 492.507 67.8542C472.976 97.3457 469.603 134.855 466.73 169.745C463.994 202.977 458.182 237.194 436.483 258.447C408.708 285.473 363.682 284.282 329.605 310.488C300.835 332.613 285.431 364.485 280.343 396.876C277.257 416.521 279.933 437.671 282.018 458.814C289.244 532.088 353.87 566.824 344.708 623.279C334.979 682.638 298.567 706.228 273.737 712.17C243.349 719.443 175.768 716.756 148.449 651.305C136.537 622.765 122.102 593.28 103.624 566.348C77.8215 528.743 27.7095 507.385 -13.5481 522.573C-43.1466 533.469 -67.0079 560.35 -99.8384 566.109C-123.567 570.272 -147.301 563.199 -165.656 550.66C-184.864 537.539 -199.454 518.769 -209.97 497.415" stroke="url(#paint4_linear_41260_10474)" stroke-miterlimit="10"/>
<path d="M594.819 32.243C557.736 20.3271 512.295 37.712 489.789 70.7154C469.697 100.181 465.963 138.145 463.796 173.316C461.758 206.398 457.435 240.214 437.397 261.993C411.85 289.759 368.629 291.096 334.875 317.393C305.817 340.032 288.56 370.684 281.752 403.039C277.544 423.037 279.191 444.962 281.096 466.874C287.268 537.878 348.608 572.587 339.768 627.737C330.433 685.241 295.719 709.248 271.038 715.803C241.204 723.728 176.376 720.885 148.525 659.053C136.093 631.453 120.946 602.783 102.532 576.192C77.3083 539.768 29.4123 518.731 -10.7236 532.112C-39.9582 541.858 -64.1729 567.055 -96.6105 572.904C-120.489 577.209 -144.264 571.113 -163.151 559.685C-183.197 547.553 -199.082 529.687 -210.796 508.669" stroke="url(#paint5_linear_41260_10474)" stroke-miterlimit="10"/>
<path d="M595.852 34.2726C557.387 23.2188 510.672 39.9132 487.071 73.5754C466.427 103.02 462.314 141.431 460.862 176.887C459.514 209.817 456.653 243.196 438.312 265.538C414.949 293.996 373.58 297.913 340.148 324.297C310.804 347.455 291.657 376.885 283.165 409.201C277.815 429.556 278.462 452.25 280.176 474.933C285.369 543.653 343.35 578.349 334.829 632.193C325.891 687.843 292.872 712.256 268.34 719.434C239.06 728 176.915 725.009 148.602 666.798C135.63 640.125 119.794 612.283 101.442 586.033C76.8014 550.788 31.0958 530.057 -7.89703 541.649C-36.7841 550.238 -61.3361 573.762 -93.3807 579.695C-117.409 584.145 -141.242 579.038 -160.642 568.707C-181.544 557.577 -198.707 540.605 -211.62 519.921" stroke="url(#paint6_linear_41260_10474)" stroke-miterlimit="10"/>
<path d="M596.884 36.305C557.039 26.1123 509.058 42.1228 484.353 76.4373C463.165 105.867 458.657 144.717 457.929 180.459C457.261 213.235 455.872 246.178 439.226 269.085C418.046 298.233 378.534 304.737 345.419 331.202C315.79 354.881 294.721 383.083 284.574 415.364C278.065 436.074 277.741 459.535 279.254 482.993C283.538 549.421 338.088 584.113 329.889 636.652C321.346 690.447 290.023 715.26 265.641 723.066C236.916 732.263 169.815 732.485 148.678 674.545C138.707 647.211 118.643 621.783 100.352 595.876C76.2974 561.806 32.7553 541.361 -5.07143 551.189C-33.6272 558.609 -58.4988 580.474 -90.1518 586.49C-114.33 591.084 -138.235 586.979 -158.136 577.732C-179.908 567.616 -198.335 551.524 -212.445 531.176" stroke="url(#paint7_linear_41260_10474)" stroke-miterlimit="10"/>
<path d="M597.917 38.3381C556.69 29.0074 507.452 44.3384 481.636 79.2994C459.912 108.719 454.992 148.002 454.996 184.031C454.999 216.651 455.088 249.158 440.141 272.632C421.142 302.466 383.492 311.565 350.691 338.109C320.782 362.312 297.758 389.277 285.986 421.528C278.299 442.588 277.035 466.818 278.334 491.054C281.77 555.18 332.829 589.876 324.95 641.112C316.802 693.053 287.176 718.257 262.943 726.701C234.771 736.519 169.666 737.09 148.756 682.294C138.565 655.59 117.495 631.283 99.2634 605.721C75.7996 572.824 34.3931 552.638 -2.24394 560.731C-30.4858 566.969 -55.6598 587.192 -86.921 593.286C-111.248 598.028 -135.239 594.937 -155.626 586.759C-178.281 577.672 -197.96 562.445 -213.268 542.431" stroke="url(#paint8_linear_41260_10474)" stroke-miterlimit="10"/>
<path d="M598.949 40.3685C556.342 31.8992 505.854 46.5566 478.917 82.1602C456.664 111.574 451.315 151.284 452.061 187.602C452.727 220.066 454.304 252.134 441.055 276.177C424.236 306.696 388.453 318.395 355.963 345.013C325.774 369.745 300.769 395.46 287.397 427.691C278.516 449.096 276.341 474.098 277.412 499.113C280.059 560.933 327.568 595.639 320.01 645.569C312.258 695.656 284.326 721.242 260.244 730.332C232.622 740.76 169.605 741.683 148.831 690.041C138.336 663.95 116.349 640.78 98.1725 615.563C75.3037 583.837 36.0087 563.882 0.581068 570.269C-27.3636 575.308 -52.8227 593.909 -83.6927 600.079C-108.169 604.971 -132.253 602.908 -153.12 595.783C-176.667 587.743 -197.588 573.362 -214.094 553.685" stroke="url(#paint9_linear_41260_10474)" stroke-miterlimit="10"/>
<path d="M599.981 42.3991C555.993 34.791 504.263 48.781 476.199 85.0202C453.421 114.432 447.63 154.566 449.126 191.173C450.447 223.48 453.517 255.11 441.968 279.723C427.328 310.925 393.415 325.231 361.233 351.918C330.769 377.18 303.756 401.631 288.807 433.853C278.718 455.596 275.663 481.376 276.49 507.172C278.399 566.68 322.307 601.401 315.07 650.027C307.712 698.259 281.472 724.22 257.545 733.965C230.47 744.992 169.64 746.26 148.908 697.788C138.008 672.303 115.207 650.275 97.0829 625.406C74.8133 594.848 37.6067 575.09 3.40728 579.809C-24.2563 583.626 -49.9842 600.63 -80.4632 606.873C-105.088 611.918 -129.273 610.897 -150.612 604.808C-175.059 597.833 -197.214 584.281 -214.918 564.939" stroke="url(#paint10_linear_41260_10474)" stroke-miterlimit="10"/>
<path d="M601.013 44.4288C555.644 37.6827 502.68 51.0102 473.481 87.8803C450.186 117.296 443.936 157.847 446.192 194.743C448.158 226.894 452.728 258.082 442.882 283.268C430.417 315.151 398.381 332.068 366.504 358.822C335.767 384.62 306.728 407.79 290.217 440.016C278.907 462.087 275.001 488.652 275.568 515.232C276.787 572.427 317.045 607.164 310.129 654.486C303.167 700.862 278.616 727.189 254.845 737.598C228.314 749.215 178.307 745.82 148.983 705.535C132.873 683.405 114.064 659.768 95.9909 635.249C74.3247 605.856 39.1855 586.259 6.23154 589.349C-21.1634 591.917 -47.1471 607.354 -77.2356 613.668C-102.01 618.866 -126.297 618.901 -148.107 613.833C-173.455 607.942 -196.844 595.2 -215.745 576.194" stroke="url(#paint11_linear_41260_10474)" stroke-miterlimit="10"/>
<path d="M602.044 46.4621C555.293 40.5771 501.101 53.2491 470.761 90.7432C446.952 120.167 440.232 161.132 443.257 198.316C445.86 230.311 451.936 261.057 443.794 286.815C433.501 319.379 403.349 338.912 371.774 365.729C340.767 392.064 309.684 413.939 291.626 446.179C279.084 468.571 274.36 495.931 274.645 523.292C275.217 578.172 311.877 612.942 305.188 658.944C298.712 703.48 275.755 730.151 252.145 741.23C226.153 753.428 178.295 750.077 149.058 713.282C132.207 692.076 112.925 669.26 94.8987 645.092C73.8403 616.86 40.7513 597.384 9.05516 598.889C-18.081 600.178 -44.3104 614.081 -74.0087 620.462C-98.93 625.817 -123.322 626.922 -145.601 622.858C-171.853 618.07 -196.472 606.119 -216.571 587.448" stroke="url(#paint12_linear_41260_10474)" stroke-miterlimit="10"/>
<path d="M603.078 48.4916C554.946 43.4686 499.532 55.489 468.044 93.6022C443.727 123.037 436.52 164.416 440.325 201.886C443.559 233.727 451.146 264.028 444.711 290.359C436.587 323.602 408.323 345.755 377.048 372.631C345.772 399.509 312.632 420.07 293.038 452.34C279.255 475.041 273.744 503.205 273.726 531.349C273.692 583.916 306.619 618.702 300.251 663.4C294.17 706.081 272.894 733.101 249.45 744.861C223.993 757.629 178.189 754.388 149.137 721.028C131.495 700.77 111.795 678.746 93.811 654.933C73.3652 627.86 42.3152 608.46 11.8834 608.426C-15 608.397 -41.4672 620.808 -70.7767 627.255C-95.8457 632.768 -120.34 634.954 -143.091 631.882C-170.245 628.214 -196.096 617.036 -217.395 598.701" stroke="url(#paint13_linear_41260_10474)" stroke-miterlimit="10"/>
<path d="M604.11 50.5219C554.597 46.3609 497.967 57.7361 465.327 96.4623C440.504 125.914 432.798 167.702 437.391 205.457C441.247 237.145 450.35 267 445.625 293.904C439.667 327.826 413.298 352.601 382.32 379.536C350.78 406.957 315.569 426.189 294.449 458.502C279.417 481.503 273.153 510.482 272.806 539.408C272.202 589.662 301.359 624.463 295.312 667.857C289.623 708.683 270.024 736.044 246.75 748.492C221.823 761.825 177.986 758.771 149.212 728.774C130.729 709.503 110.665 688.23 92.7203 664.775C72.8917 638.857 43.8753 619.487 14.7085 617.964C-11.9237 616.574 -38.6274 627.538 -67.5479 634.046C-92.7627 639.721 -117.359 642.999 -140.584 640.904C-168.636 638.374 -195.724 627.953 -218.219 609.953" stroke="url(#paint14_linear_41260_10474)" stroke-miterlimit="10"/>
<path d="M605.143 52.5536C554.249 49.2532 496.408 59.9914 462.609 99.3235C437.284 128.794 429.065 170.991 434.456 209.028C438.927 240.566 449.552 269.974 446.538 297.45C442.743 332.052 418.273 359.452 387.589 386.44C355.788 414.409 318.497 432.295 295.858 464.664C279.569 487.955 272.587 517.761 271.882 547.467C270.743 595.412 296.092 630.224 290.369 672.314C285.072 711.284 267.146 738.979 244.049 752.124C219.645 766.013 177.696 763.238 149.287 736.521C129.905 718.291 109.538 697.712 91.6286 674.617C72.4206 649.85 45.4418 630.465 17.5331 627.504C-8.8395 624.705 -35.7879 634.273 -64.3204 640.842C-89.6822 646.68 -114.373 651.058 -138.079 649.931C-167.023 648.553 -195.353 638.873 -219.046 621.208" stroke="url(#paint15_linear_41260_10474)" stroke-miterlimit="10"/>
<path d="M606.174 54.5875C553.9 52.1491 494.853 62.2532 459.89 102.187C434.067 131.681 425.323 174.287 431.521 212.602C436.6 243.992 448.75 272.951 447.452 300.998C445.818 336.282 423.253 366.307 392.86 393.347C360.802 421.868 321.421 438.391 297.269 470.829C279.719 494.4 272.059 525.045 270.961 555.529C269.317 601.169 290.826 635.988 285.43 676.775C280.521 713.889 264.265 741.91 241.351 755.758C217.464 770.194 177.338 767.806 149.364 744.269C129.027 727.158 108.419 707.19 90.539 684.461C71.9577 660.841 47.0277 641.397 20.3593 637.044C-5.73894 632.785 -32.9448 641.011 -61.09 647.636C-86.5968 653.641 -111.379 659.126 -135.57 658.955C-165.401 658.745 -194.977 649.792 -219.869 632.463" stroke="url(#paint16_linear_41260_10474)" stroke-miterlimit="10"/>
<path d="M607.207 56.6167C553.55 55.0395 493.305 64.5171 457.172 105.047C430.853 134.567 421.572 177.581 428.588 216.172C434.268 247.416 447.895 275.927 448.366 304.543C448.822 340.511 428.236 373.162 398.132 400.25C365.819 429.326 324.343 444.472 298.679 476.991C279.863 500.832 271.568 532.332 270.039 563.588C267.919 606.931 285.481 641.739 280.49 681.233C275.899 716.481 261.375 744.831 238.651 759.39C215.273 774.369 176.928 772.483 149.439 752.016C128.091 736.122 107.304 716.664 89.4477 694.304C71.4978 671.828 48.6374 652.282 23.1839 646.584C-2.61428 640.808 -30.1034 647.749 -57.8621 654.43C-83.5129 660.603 -108.379 667.201 -133.064 667.98C-163.772 668.948 -194.606 660.711 -220.696 643.716" stroke="url(#paint17_linear_41260_10474)" stroke-miterlimit="10"/>
<path d="M608.239 58.6467C553.202 57.9315 491.762 66.7872 454.454 107.906C427.642 137.457 417.813 180.88 425.654 219.742C431.93 250.844 447.104 278.904 449.28 308.087C451.908 344.743 433.221 380.018 403.404 407.153C370.839 436.788 327.263 450.542 300.091 483.152C280.006 507.256 271.124 539.622 269.119 571.645C266.549 612.699 280.22 647.499 275.551 685.688C271.356 719.083 258.479 747.744 235.954 763.02C213.078 778.536 176.5 777.282 149.517 759.761C127.11 745.21 106.197 726.128 88.3592 704.144C71.0448 682.807 50.2851 663.126 26.0112 656.12C0.549239 648.773 -27.259 654.487 -54.6315 661.221C-80.4271 667.566 -105.371 675.281 -130.555 677.001C-162.134 679.157 -194.232 671.626 -221.519 654.967" stroke="url(#paint18_linear_41260_10474)" stroke-miterlimit="10"/>
<path d="M609.271 60.6803C552.853 60.8257 490.221 69.0666 451.735 110.77C424.433 140.355 414.044 184.188 422.72 223.316C429.585 254.279 446.312 281.887 450.193 311.636C454.993 348.979 438.261 386.939 408.674 414.061C375.921 444.32 330.181 456.604 301.5 489.317C280.145 513.675 270.73 546.924 268.196 579.707C265.2 618.483 274.958 653.266 270.611 690.149C266.811 721.69 255.571 750.654 233.254 766.656C210.871 782.704 176.08 782.221 149.592 767.511C126.089 754.459 105.095 735.592 87.2666 713.99C70.5933 693.787 51.9751 673.942 28.8349 665.664C3.75706 656.692 -24.4043 661.285 -51.4045 668.019C-77.3305 674.586 -102.358 683.374 -128.051 686.03C-160.491 689.384 -193.861 682.549 -222.346 666.225" stroke="url(#paint19_linear_41260_10474)" stroke-miterlimit="10"/>
<path d="M610.304 62.709C552.505 63.7164 488.747 71.4022 449.018 113.628C421.269 143.288 410.268 187.494 419.786 226.884C427.236 257.714 445.521 284.863 451.108 315.178C458.079 353.209 443.227 393.771 413.947 420.962C380.922 451.756 333.1 462.652 302.911 495.477C280.283 520.082 270.399 554.232 267.276 587.764C263.875 624.278 269.699 659.026 265.672 694.605C262.267 724.291 252.658 753.555 230.557 770.286C208.66 786.862 175.717 787.294 149.669 775.257C125.055 763.882 104.003 745.044 86.1777 723.832C70.1497 704.758 53.7222 684.731 31.6619 675.201C7.02449 664.558 -21.5641 668.005 -48.1742 674.811C-74.2473 681.533 -99.3347 691.465 -125.542 695.053C-158.834 699.612 -193.486 693.465 -223.17 677.477" stroke="url(#paint20_linear_41260_10474)" stroke-miterlimit="10"/>
<path d="M611.335 64.7428C552.155 66.6114 487.156 73.6373 446.299 116.491C418.02 146.152 406.481 190.811 416.851 230.459C424.881 261.156 444.73 287.845 452.022 318.727C461.164 357.446 448.191 400.608 419.217 427.871C385.921 459.199 336.019 468.698 304.322 501.643C280.42 526.486 270.14 561.561 266.354 595.827C262.568 630.093 264.438 664.792 260.732 699.067C257.722 726.898 249.733 756.456 227.858 773.922C206.439 791.023 175.454 792.51 149.745 783.007C124.037 773.504 102.918 754.492 85.0867 733.677C69.7095 715.727 55.5265 695.513 34.4867 684.743C10.3561 672.392 -18.7251 674.73 -44.9461 681.608C-71.1671 688.486 -96.3067 699.563 -123.036 704.08C-157.174 709.85 -193.115 704.387 -223.996 688.734" stroke="url(#paint21_linear_41260_10474)" stroke-miterlimit="10"/>
</g>
<defs>
<linearGradient id="paint0_linear_41260_10474" x1="-212.697" y1="455.879" x2="625.177" y2="797.224" gradientUnits="userSpaceOnUse">
<stop stop-color="#F4EAD8"/>
<stop offset="1" stop-color="#E0B764"/>
</linearGradient>
<linearGradient id="paint1_linear_41260_10474" x1="-214.821" y1="460.047" x2="621.579" y2="804.19" gradientUnits="userSpaceOnUse">
<stop stop-color="#F4EAD8"/>
<stop offset="1" stop-color="#E0B764"/>
</linearGradient>
<linearGradient id="paint2_linear_41260_10474" x1="-217.886" y1="463.566" x2="618.677" y2="810.339" gradientUnits="userSpaceOnUse">
<stop stop-color="#F4EAD8"/>
<stop offset="1" stop-color="#E0B764"/>
</linearGradient>
<linearGradient id="paint3_linear_41260_10474" x1="-221.426" y1="467.34" x2="615.438" y2="817.015" gradientUnits="userSpaceOnUse">
<stop stop-color="#F4EAD8"/>
<stop offset="1" stop-color="#E0B764"/>
</linearGradient>
<linearGradient id="paint4_linear_41260_10474" x1="-225.441" y1="471.367" x2="611.856" y2="824.215" gradientUnits="userSpaceOnUse">
<stop stop-color="#F4EAD8"/>
<stop offset="1" stop-color="#E0B764"/>
</linearGradient>
<linearGradient id="paint5_linear_41260_10474" x1="-229.894" y1="475.629" x2="607.962" y2="831.889" gradientUnits="userSpaceOnUse">
<stop stop-color="#F4EAD8"/>
<stop offset="1" stop-color="#E0B764"/>
</linearGradient>
<linearGradient id="paint6_linear_41260_10474" x1="-234.644" y1="480.043" x2="603.871" y2="839.859" gradientUnits="userSpaceOnUse">
<stop stop-color="#F4EAD8"/>
<stop offset="1" stop-color="#E0B764"/>
</linearGradient>
<linearGradient id="paint7_linear_41260_10474" x1="-239.418" y1="484.457" x2="599.815" y2="847.793" gradientUnits="userSpaceOnUse">
<stop stop-color="#F4EAD8"/>
<stop offset="1" stop-color="#E0B764"/>
</linearGradient>
<linearGradient id="paint8_linear_41260_10474" x1="-244.197" y1="488.859" x2="595.817" y2="855.668" gradientUnits="userSpaceOnUse">
<stop stop-color="#F4EAD8"/>
<stop offset="1" stop-color="#E0B764"/>
</linearGradient>
<linearGradient id="paint9_linear_41260_10474" x1="-248.986" y1="493.25" x2="591.875" y2="863.488" gradientUnits="userSpaceOnUse">
<stop stop-color="#F4EAD8"/>
<stop offset="1" stop-color="#E0B764"/>
</linearGradient>
<linearGradient id="paint10_linear_41260_10474" x1="-253.779" y1="497.629" x2="588.002" y2="871.249" gradientUnits="userSpaceOnUse">
<stop stop-color="#F4EAD8"/>
<stop offset="1" stop-color="#E0B764"/>
</linearGradient>
<linearGradient id="paint11_linear_41260_10474" x1="-258.581" y1="502" x2="584.192" y2="878.963" gradientUnits="userSpaceOnUse">
<stop stop-color="#F4EAD8"/>
<stop offset="1" stop-color="#E0B764"/>
</linearGradient>
<linearGradient id="paint12_linear_41260_10474" x1="-263.386" y1="506.363" x2="580.453" y2="886.625" gradientUnits="userSpaceOnUse">
<stop stop-color="#F4EAD8"/>
<stop offset="1" stop-color="#E0B764"/>
</linearGradient>
<linearGradient id="paint13_linear_41260_10474" x1="-268.193" y1="510.715" x2="576.789" y2="894.236" gradientUnits="userSpaceOnUse">
<stop stop-color="#F4EAD8"/>
<stop offset="1" stop-color="#E0B764"/>
</linearGradient>
<linearGradient id="paint14_linear_41260_10474" x1="-273.006" y1="515.059" x2="573.194" y2="901.801" gradientUnits="userSpaceOnUse">
<stop stop-color="#F4EAD8"/>
<stop offset="1" stop-color="#E0B764"/>
</linearGradient>
<linearGradient id="paint15_linear_41260_10474" x1="-277.825" y1="519.398" x2="569.665" y2="909.328" gradientUnits="userSpaceOnUse">
<stop stop-color="#F4EAD8"/>
<stop offset="1" stop-color="#E0B764"/>
</linearGradient>
<linearGradient id="paint16_linear_41260_10474" x1="-282.646" y1="523.73" x2="566.206" y2="916.811" gradientUnits="userSpaceOnUse">
<stop stop-color="#F4EAD8"/>
<stop offset="1" stop-color="#E0B764"/>
</linearGradient>
<linearGradient id="paint17_linear_41260_10474" x1="-287.473" y1="528.055" x2="562.797" y2="924.259" gradientUnits="userSpaceOnUse">
<stop stop-color="#F4EAD8"/>
<stop offset="1" stop-color="#E0B764"/>
</linearGradient>
<linearGradient id="paint18_linear_41260_10474" x1="-292.3" y1="532.371" x2="559.447" y2="931.669" gradientUnits="userSpaceOnUse">
<stop stop-color="#F4EAD8"/>
<stop offset="1" stop-color="#E0B764"/>
</linearGradient>
<linearGradient id="paint19_linear_41260_10474" x1="-297.135" y1="536.688" x2="556.159" y2="939.051" gradientUnits="userSpaceOnUse">
<stop stop-color="#F4EAD8"/>
<stop offset="1" stop-color="#E0B764"/>
</linearGradient>
<linearGradient id="paint20_linear_41260_10474" x1="-301.954" y1="541.02" x2="552.92" y2="946.426" gradientUnits="userSpaceOnUse">
<stop stop-color="#F4EAD8"/>
<stop offset="1" stop-color="#E0B764"/>
</linearGradient>
<linearGradient id="paint21_linear_41260_10474" x1="-306.81" y1="545.297" x2="549.86" y2="953.696" gradientUnits="userSpaceOnUse">
<stop stop-color="#F4EAD8"/>
<stop offset="1" stop-color="#E0B764"/>
</linearGradient>
</defs>
</svg>
