<svg width="20" height="20" viewBox="0 0 20 20" fill="none" xmlns="http://www.w3.org/2000/svg">
<path d="M9.99967 0.832031C4.93967 0.832031 0.833008 4.9387 0.833008 9.9987C0.833008 15.0587 4.93967 19.1654 9.99967 19.1654C15.0597 19.1654 19.1663 15.0587 19.1663 9.9987C19.1663 4.9387 15.0597 0.832031 9.99967 0.832031ZM15.3163 11.2179C15.3347 11.3462 15.3438 11.4837 15.3438 11.6212C15.3438 13.6745 12.9513 15.3429 9.99967 15.3429C7.04801 15.3429 4.65551 13.6745 4.65551 11.6212C4.65551 11.4837 4.66467 11.3462 4.68301 11.2179C4.21551 11.007 3.89467 10.5395 3.89467 9.9987C3.89332 9.73584 3.96966 9.47844 4.11412 9.25883C4.25858 9.03922 4.46471 8.86719 4.70662 8.76436C4.94853 8.66152 5.21543 8.63246 5.47381 8.68082C5.73218 8.72919 5.97051 8.85282 6.15884 9.0362C7.08467 8.36703 8.36801 7.94536 9.78884 7.89953L10.4672 4.70036C10.4763 4.6362 10.513 4.5812 10.568 4.5537C10.623 4.51703 10.6872 4.50786 10.7513 4.51703L12.9697 4.9937C13.0449 4.84115 13.1596 4.7115 13.3018 4.61821C13.4441 4.52492 13.6087 4.47138 13.7785 4.46315C13.9484 4.45492 14.1175 4.49229 14.268 4.5714C14.4186 4.6505 14.5453 4.76845 14.6349 4.91302C14.7246 5.05758 14.7739 5.2235 14.7778 5.39355C14.7817 5.5636 14.74 5.7316 14.6571 5.88011C14.5741 6.02863 14.453 6.15225 14.3062 6.23816C14.1594 6.32408 13.9923 6.36915 13.8222 6.3687C13.3088 6.3687 12.8963 5.96536 12.8688 5.4612L10.8797 5.03953L10.2747 7.89953C11.6772 7.94536 12.933 8.3762 13.8497 9.0362C13.9902 8.90201 14.1583 8.80015 14.3423 8.73773C14.5264 8.67532 14.7218 8.65386 14.9149 8.67486C15.1081 8.69586 15.2943 8.75881 15.4606 8.85931C15.6269 8.95981 15.7693 9.09543 15.8777 9.25668C15.9861 9.41793 16.0579 9.60092 16.0882 9.79284C16.1185 9.98477 16.1065 10.181 16.053 10.3678C15.9996 10.5546 15.9059 10.7275 15.7787 10.8743C15.6514 11.0211 15.4936 11.1384 15.3163 11.2179Z" fill="#FCF9F6"/>
</svg>
