<svg width="22" height="22" viewBox="0 0 22 22" fill="none" xmlns="http://www.w3.org/2000/svg">
<path d="M11.9425 1.83316C12.6115 1.83059 13.2804 1.83732 13.9491 1.85333L14.127 1.85974C14.3323 1.86708 14.5349 1.87624 14.7796 1.88724C15.755 1.93308 16.4205 2.08708 17.0044 2.31349C17.6094 2.54633 18.119 2.86166 18.6287 3.37133C19.0947 3.8293 19.4554 4.38328 19.6856 4.99474C19.912 5.57866 20.066 6.24508 20.1119 7.22041C20.1229 7.46424 20.132 7.66774 20.1394 7.87308L20.1449 8.05091C20.1612 8.71934 20.1682 9.38796 20.166 10.0566L20.1669 10.7404V11.9412C20.1691 12.6102 20.1621 13.2791 20.1458 13.9478L20.1403 14.1257C20.133 14.331 20.1238 14.5336 20.1128 14.7783C20.067 15.7537 19.9111 16.4192 19.6856 17.0031C19.4561 17.6152 19.0954 18.1696 18.6287 18.6274C18.1703 19.0934 17.6161 19.454 17.0044 19.6843C16.4205 19.9107 15.755 20.0647 14.7796 20.1106C14.5349 20.1216 14.3323 20.1307 14.127 20.1381L13.9491 20.1436C13.2804 20.1599 12.6115 20.1669 11.9425 20.1647L11.2587 20.1656H10.0588C9.38986 20.1678 8.72094 20.1608 8.0522 20.1445L7.87437 20.139C7.65676 20.1311 7.4392 20.1219 7.2217 20.1115C6.24637 20.0657 5.58087 19.9098 4.99604 19.6843C4.38433 19.4546 3.83025 19.0938 3.37262 18.6274C2.90608 18.1693 2.54508 17.615 2.31479 17.0031C2.08837 16.4192 1.93437 15.7537 1.88854 14.7783C1.87833 14.5608 1.86916 14.3433 1.86104 14.1257L1.85645 13.9478C1.83955 13.2791 1.83191 12.6102 1.83354 11.9412V10.0566C1.83098 9.38796 1.8377 8.71934 1.8537 8.05091L1.86012 7.87308C1.86745 7.66774 1.87662 7.46424 1.88762 7.22041C1.93345 6.24416 2.08745 5.57958 2.31387 4.99474C2.5443 4.38298 2.906 3.82915 3.37354 3.37224C3.83086 2.90543 4.38458 2.5441 4.99604 2.31349C5.58087 2.08708 6.24545 1.93308 7.2217 1.88724L7.87437 1.85974L8.0522 1.85516C8.72062 1.83827 9.38924 1.83063 10.0579 1.83224L11.9425 1.83316ZM11.0002 6.41649C10.3929 6.4079 9.78998 6.5201 9.22643 6.74655C8.66288 6.97301 8.14996 7.30922 7.71748 7.73563C7.28499 8.16204 6.94157 8.67015 6.70717 9.23044C6.47276 9.79073 6.35205 10.392 6.35205 10.9994C6.35205 11.6067 6.47276 12.208 6.70717 12.7683C6.94157 13.3286 7.28499 13.8367 7.71748 14.2631C8.14996 14.6895 8.66288 15.0257 9.22643 15.2522C9.78998 15.4786 10.3929 15.5908 11.0002 15.5822C12.2158 15.5822 13.3816 15.0994 14.2411 14.2398C15.1007 13.3803 15.5835 12.2145 15.5835 10.9989C15.5835 9.78333 15.1007 8.61754 14.2411 7.758C13.3816 6.89846 12.2158 6.41649 11.0002 6.41649ZM11.0002 8.24983C11.3655 8.2431 11.7285 8.30922 12.0679 8.44435C12.4074 8.57947 12.7165 8.78089 12.9773 9.03683C13.238 9.29276 13.4451 9.59809 13.5865 9.93497C13.7279 10.2719 13.8008 10.6335 13.8009 10.9989C13.8009 11.3643 13.7282 11.726 13.5869 12.0629C13.4456 12.3998 13.2386 12.7052 12.9779 12.9613C12.7173 13.2173 12.4082 13.4188 12.0688 13.554C11.7294 13.6893 11.3664 13.7555 11.0011 13.7489C10.2718 13.7489 9.5723 13.4592 9.05658 12.9435C8.54085 12.4277 8.25112 11.7283 8.25112 10.9989C8.25112 10.2696 8.54085 9.57009 9.05658 9.05437C9.5723 8.53864 10.2718 8.24891 11.0011 8.24891L11.0002 8.24983ZM15.8127 5.04149C15.517 5.05333 15.2373 5.17913 15.0323 5.39255C14.8272 5.60597 14.7127 5.89045 14.7127 6.18641C14.7127 6.48237 14.8272 6.76685 15.0323 6.98027C15.2373 7.19369 15.517 7.31949 15.8127 7.33133C16.1166 7.33133 16.408 7.2106 16.6229 6.99572C16.8378 6.78083 16.9585 6.48939 16.9585 6.18549C16.9585 5.8816 16.8378 5.59015 16.6229 5.37527C16.408 5.16038 16.1166 5.03966 15.8127 5.03966V5.04149Z" fill="#FCF9F6"/>
</svg>
