   <svg width="14" height="14" viewBox="0 0 14 14" fill="none" xmlns="http://www.w3.org/2000/svg">
                <path
                  d="M13 7.99609H8V12.9961C8 13.2613 7.89464 13.5157 7.70711 13.7032C7.51957 13.8907 7.26522 13.9961 7 13.9961C6.73478 13.9961 6.48043 13.8907 6.29289 13.7032C6.10536 13.5157 6 13.2613 6 12.9961V7.99609H1C0.734784 7.99609 0.48043 7.89074 0.292893 7.7032C0.105357 7.51566 0 7.26131 0 6.99609C0 6.73088 0.105357 6.47652 0.292893 6.28899C0.48043 6.10145 0.734784 5.99609 1 5.99609H6V0.996094C6 0.730877 6.10536 0.476523 6.29289 0.288987C6.48043 0.10145 6.73478 -0.00390625 7 -0.00390625C7.26522 -0.00390625 7.51957 0.10145 7.70711 0.288987C7.89464 0.476523 8 0.730877 8 0.996094V5.99609H13C13.2652 5.99609 13.5196 6.10145 13.7071 6.28899C13.8946 6.47652 14 6.73088 14 6.99609C14 7.26131 13.8946 7.51566 13.7071 7.7032C13.5196 7.89074 13.2652 7.99609 13 7.99609Z"
                  fill="black" style="fill:black;fill-opacity:1;" />
              </svg>