<svg width="364" height="234" viewBox="0 0 364 234" fill="none" xmlns="http://www.w3.org/2000/svg">
<g opacity="0.05">
<path d="M125.852 45.1953C143.951 45.1953 157.036 52.6497 165.109 67.5586C171.359 79.082 174.484 94.8698 174.484 114.922C174.484 133.932 171.652 149.655 165.988 162.09C157.785 179.928 144.374 188.848 125.754 188.848C108.957 188.848 96.457 181.556 88.2539 166.973C81.418 154.798 78 138.457 78 117.949C78 102.064 80.0508 88.4245 84.1523 77.0312C91.8346 55.8073 105.734 45.1953 125.852 45.1953ZM125.656 172.832C134.771 172.832 142.03 168.796 147.434 160.723C152.837 152.65 155.539 137.611 155.539 115.605C155.539 99.7201 153.586 86.6667 149.68 76.4453C145.773 66.1589 138.189 61.0156 126.926 61.0156C116.574 61.0156 108.99 65.8984 104.172 75.6641C99.4193 85.3646 97.043 99.6875 97.043 118.633C97.043 132.891 98.5729 144.349 101.633 153.008C106.32 166.224 114.328 172.832 125.656 172.832Z" fill="url(#paint0_linear_41260_4781)"/>
<path d="M235.031 188.848C218.495 188.848 206.483 184.323 198.996 175.273C191.574 166.159 187.863 155.091 187.863 142.07H206.223C207.004 151.12 208.697 157.695 211.301 161.797C215.858 169.154 224.094 172.832 236.008 172.832C245.253 172.832 252.674 170.358 258.273 165.41C263.872 160.462 266.672 154.082 266.672 146.27C266.672 136.634 263.71 129.896 257.785 126.055C251.926 122.214 243.755 120.293 233.273 120.293C232.102 120.293 230.897 120.326 229.66 120.391C228.488 120.391 227.284 120.423 226.047 120.488V104.961C227.87 105.156 229.4 105.286 230.637 105.352C231.874 105.417 233.208 105.449 234.641 105.449C241.216 105.449 246.62 104.408 250.852 102.324C258.273 98.6784 261.984 92.168 261.984 82.793C261.984 75.8268 259.51 70.4557 254.562 66.6797C249.615 62.9036 243.853 61.0156 237.277 61.0156C225.559 61.0156 217.453 64.9219 212.961 72.7344C210.487 77.0312 209.087 83.151 208.762 91.0938H191.379C191.379 80.6771 193.462 71.8229 197.629 64.5312C204.79 51.5104 217.388 45 235.422 45C249.68 45 260.715 48.1901 268.527 54.5703C276.34 60.8854 280.246 70.0651 280.246 82.1094C280.246 90.7031 277.935 97.6693 273.312 103.008C270.448 106.328 266.737 108.932 262.18 110.82C269.536 112.839 275.266 116.745 279.367 122.539C283.534 128.268 285.617 135.299 285.617 143.633C285.617 156.979 281.223 167.852 272.434 176.25C263.645 184.648 251.177 188.848 235.031 188.848Z" fill="url(#paint1_linear_41260_4781)"/>
</g>
<defs>
<linearGradient id="paint0_linear_41260_4781" x1="78" y1="61.1829" x2="204.671" y2="334.905" gradientUnits="userSpaceOnUse">
<stop stop-color="#EEDDBF"/>
<stop offset="0.745659" stop-color="#C78A11"/>
</linearGradient>
<linearGradient id="paint1_linear_41260_4781" x1="78" y1="61.1829" x2="204.671" y2="334.905" gradientUnits="userSpaceOnUse">
<stop stop-color="#EEDDBF"/>
<stop offset="0.745659" stop-color="#C78A11"/>
</linearGradient>
</defs>
</svg>
