<svg width="22" height="22" viewBox="0 0 22 22" fill="none" xmlns="http://www.w3.org/2000/svg">
<path d="M9.16634 13.7487L13.9238 10.9987L9.16634 8.2487V13.7487ZM19.763 6.5712C19.8822 7.00203 19.9647 7.57953 20.0197 8.31286C20.0838 9.0462 20.1113 9.6787 20.1113 10.2287L20.1663 10.9987C20.1663 13.0062 20.0197 14.482 19.763 15.4262C19.5338 16.2512 19.0022 16.7829 18.1772 17.012C17.7463 17.1312 16.958 17.2137 15.748 17.2687C14.5563 17.3329 13.4655 17.3604 12.4572 17.3604L10.9997 17.4154C7.15884 17.4154 4.76634 17.2687 3.82217 17.012C2.99717 16.7829 2.46551 16.2512 2.23634 15.4262C2.11717 14.9954 2.03467 14.4179 1.97967 13.6845C1.91551 12.9512 1.88801 12.3187 1.88801 11.7687L1.83301 10.9987C1.83301 8.9912 1.97967 7.51536 2.23634 6.5712C2.46551 5.7462 2.99717 5.21453 3.82217 4.98536C4.25301 4.8662 5.04134 4.7837 6.25134 4.7287C7.44301 4.66453 8.53384 4.63703 9.54217 4.63703L10.9997 4.58203C14.8405 4.58203 17.233 4.7287 18.1772 4.98536C19.0022 5.21453 19.5338 5.7462 19.763 6.5712Z" fill="#FCF9F6"/>
</svg>
