<svg width="364" height="234" viewBox="0 0 364 234" fill="none" xmlns="http://www.w3.org/2000/svg">
<g opacity="0.05">
<path d="M125.348 45.4883C143.447 45.4883 156.533 52.9427 164.605 67.8516C170.855 79.375 173.98 95.1628 173.98 115.215C173.98 134.225 171.148 149.948 165.484 162.383C157.281 180.221 143.87 189.141 125.25 189.141C108.453 189.141 95.9531 181.849 87.75 167.266C80.9141 155.091 77.4961 138.75 77.4961 118.242C77.4961 102.357 79.5469 88.7174 83.6484 77.3242C91.3307 56.1003 105.23 45.4883 125.348 45.4883ZM125.152 173.125C134.267 173.125 141.526 169.089 146.93 161.016C152.333 152.943 155.035 137.904 155.035 115.898C155.035 100.013 153.082 86.9596 149.176 76.7383C145.27 66.4518 137.685 61.3086 126.422 61.3086C116.07 61.3086 108.486 66.1914 103.668 75.957C98.9154 85.6576 96.5391 99.9805 96.5391 118.926C96.5391 133.184 98.069 144.642 101.129 153.301C105.816 166.517 113.824 173.125 125.152 173.125Z" fill="url(#paint0_linear_41260_4775)"/>
<path d="M188.824 185.332C189.475 173.288 191.949 162.806 196.246 153.887C200.608 144.967 209.072 136.862 221.637 129.57L240.387 118.73C248.785 113.848 254.677 109.681 258.062 106.23C263.401 100.827 266.07 94.6419 266.07 87.6758C266.07 79.5378 263.629 73.0924 258.746 68.3398C253.863 63.5221 247.353 61.1133 239.215 61.1133C227.171 61.1133 218.837 65.6706 214.215 74.7852C211.741 79.668 210.374 86.4388 210.113 95.0977H192.242C192.438 82.9232 194.684 72.9948 198.98 65.3125C206.598 51.7708 220.042 45 239.312 45C255.328 45 267.014 49.3294 274.371 57.9883C281.793 66.6471 285.504 76.2826 285.504 86.8945C285.504 98.0924 281.565 107.663 273.688 115.605C269.13 120.228 260.96 125.827 249.176 132.402L235.797 139.824C229.417 143.34 224.404 146.693 220.758 149.883C214.247 155.547 210.146 161.829 208.453 168.73H284.82V185.332H188.824Z" fill="url(#paint1_linear_41260_4775)"/>
</g>
<defs>
<linearGradient id="paint0_linear_41260_4775" x1="77.4961" y1="61.2159" x2="204.438" y2="335.481" gradientUnits="userSpaceOnUse">
<stop stop-color="#EEDDBF"/>
<stop offset="0.745659" stop-color="#C78A11"/>
</linearGradient>
<linearGradient id="paint1_linear_41260_4775" x1="77.4961" y1="61.2159" x2="204.438" y2="335.481" gradientUnits="userSpaceOnUse">
<stop stop-color="#EEDDBF"/>
<stop offset="0.745659" stop-color="#C78A11"/>
</linearGradient>
</defs>
</svg>
